<svg id="Слой_3" data-name="Слой 3" xmlns="http://www.w3.org/2000/svg" viewBox="0 0 31.39 30.78"><defs><style>.cls-1{fill:#f68624;}</style></defs><title>Фольгированные шары</title><path class="cls-1" d="M30.76,7.21A8.62,8.62,0,0,0,26.44,3a9.06,9.06,0,0,0-3.85-.9,8.08,8.08,0,0,0-1.2.09A9.83,9.83,0,0,0,17,3.94a1.41,1.41,0,0,0-.38,1.88l1.74,2.89a1.43,1.43,0,0,0,.91.66,1.63,1.63,0,0,0,.31,0,1.45,1.45,0,0,0,.8-.25A4,4,0,0,1,22,8.48a2.59,2.59,0,0,1,.47-.05,2.06,2.06,0,0,1,.91.21,1.9,1.9,0,0,1,1,1,1.22,1.22,0,0,1-.06,1.11,1.43,1.43,0,0,1-.59.58,5.64,5.64,0,0,1-1.5.57c-.65.15-1.38.29-2.18.42s-1.75.3-2.63.51a16,16,0,0,0-2.69.87,9.38,9.38,0,0,0-2.63,1.72c-.11.11-.21.24-.32.35V1.5A1.5,1.5,0,0,0,10.32,0H6.9a1.49,1.49,0,0,0-1,.42L.46,5.6A1.51,1.51,0,0,0,.41,7.72l2.31,2.42a1.49,1.49,0,0,0,1.09.47,1.51,1.51,0,0,0,1-.41L5,10v8.15H1.83a1.5,1.5,0,0,0-1.5,1.5V23a1.5,1.5,0,0,0,1.5,1.5H5.25v2.33A.74.74,0,0,0,6,27.6H7.56v2.84h1.5V27.6h1.4a.75.75,0,0,0,.75-.75V24.52h1.6l-.63,1.38a.78.78,0,0,0,0,.58.77.77,0,0,0,.41.42l1.5.64L13,30.22l1.39.56,1.06-2.66,1.23.52a.72.72,0,0,0,.29.06.76.76,0,0,0,.68-.43l1.12-2.38,3.86,1.77a1.42,1.42,0,0,0,.61.13,1.34,1.34,0,0,0,.48-.08,1.43,1.43,0,0,0,.8-.73L25.91,24a1.42,1.42,0,0,0-.68-1.89L18.55,19l.49-.11c.66-.13,1.37-.25,2.12-.35s1.66-.26,2.51-.44a15.7,15.7,0,0,0,2.55-.74,8.18,8.18,0,0,0,2.5-1.53,7.78,7.78,0,0,0,1.89-2.53A6.94,6.94,0,0,0,30.76,7.21ZM1.83,19.66h4.7V7.71l0-1.45H6.5a5.24,5.24,0,0,1-1,1.21L3.81,9.11,1.5,6.68,6.9,1.5h3.42V19.66H15V23H1.83ZM9.71,26.1h-3V24.52h3ZM16.6,27l-2.73-1.16.59-1.3H15a1.47,1.47,0,0,0,.56-.11l1.86.85Zm8-3.54-1.38,2.93-6.78-3.06a1.36,1.36,0,0,0,0-.29V19.66a.07.07,0,0,0,0-.05Zm4.7-10.75a6.23,6.23,0,0,1-1.54,2.07A6.44,6.44,0,0,1,25.71,16a15,15,0,0,1-2.33.68c-.83.17-1.63.31-2.41.42s-1.52.22-2.21.36a6.65,6.65,0,0,0-1.84.64,2.88,2.88,0,0,0-.76.6A1.48,1.48,0,0,0,15,18.16H11.82v-.1a7.38,7.38,0,0,1,1.28-1.63A7.82,7.82,0,0,1,15.32,15a15.06,15.06,0,0,1,2.46-.8c.86-.2,1.7-.36,2.53-.49s1.59-.27,2.29-.44a6.5,6.5,0,0,0,1.87-.72,2.67,2.67,0,0,0,1.17-1.21A2.64,2.64,0,0,0,25.72,9,3.3,3.3,0,0,0,24,7.35,3.48,3.48,0,0,0,22.5,7a4.34,4.34,0,0,0-.71.06,5.68,5.68,0,0,0-2.2.91L17.85,5.09A8.39,8.39,0,0,1,21.6,3.56a6.59,6.59,0,0,1,1-.07,7.61,7.61,0,0,1,3.24.77A7.16,7.16,0,0,1,29.46,7.8,5.55,5.55,0,0,1,29.32,12.69Z"/></svg>