<svg id="Calque_1" data-name="Calque 1" xmlns="http://www.w3.org/2000/svg" viewBox="0 0 25.33 25.32"><defs><style>.cls-1{fill:#fff;}</style></defs><title>Инстаграм</title><path class="cls-1" d="M19.59,25.32H5.73A5.74,5.74,0,0,1,0,19.59V5.74A5.74,5.74,0,0,1,5.73,0H19.59a5.75,5.75,0,0,1,5.74,5.74V19.59A5.74,5.74,0,0,1,19.59,25.32ZM5.73,2.52A3.22,3.22,0,0,0,2.52,5.74V19.59a3.22,3.22,0,0,0,3.21,3.22H19.59a3.22,3.22,0,0,0,3.21-3.22V5.74a3.22,3.22,0,0,0-3.21-3.22Zm6.93,16.76a6.55,6.55,0,1,1,6.55-6.54A6.54,6.54,0,0,1,12.66,19.28Zm0-10.57a4,4,0,1,0,4,4A4,4,0,0,0,12.66,8.71Zm6.8-4.13a1.67,1.67,0,1,0,1.66,1.67A1.66,1.66,0,0,0,19.46,4.58Z"/></svg>