<svg id="Слой_4" data-name="Слой 4" xmlns="http://www.w3.org/2000/svg" viewBox="0 0 39.76 30"><defs><style>.cls-1{fill:#f18527;}</style></defs><title>События</title><path class="cls-1" d="M39.11,25.35l-4.28-1.11a.81.81,0,0,0-.31,0l-2.69-7.12,0,0,.25-.13.06,0,.25-.15,0,0,.29-.19a7.92,7.92,0,0,0,1.06-.94l0,0,.18-.21.07-.09.14-.17.08-.12a1.71,1.71,0,0,1,.11-.14l.09-.15.08-.12a5.75,5.75,0,0,0,.36-.65l0-.08c0-.06,0-.12.08-.17l.09-.22a3.52,3.52,0,0,0,.15-.42l0-.08.06-.2s0-.1.05-.18a7.16,7.16,0,0,0,0-3.35,0,0,0,0,1,0,0A7.33,7.33,0,0,0,35,7.82l-3.39-7A1.43,1.43,0,0,0,29.77.1L20.7,3.53a1.44,1.44,0,0,0-.82.82,1.41,1.41,0,0,0-.82-.82L10,.1A1.43,1.43,0,0,0,8.18.82l-3.39,7A6.58,6.58,0,0,0,4.3,9.19l0,0a7.12,7.12,0,0,0,0,3.37l0,.16.06.2,0,.08c0,.14.09.28.15.42l.22.49a7,7,0,0,0,.36.65l.07.11.09.14a1.71,1.71,0,0,1,.11.14l.08.12.14.17.07.09.18.21,0,0H6a7.65,7.65,0,0,0,1.08,1l.27.18,0,0,.25.16.06,0,.27.14h0L5.24,24.24a.65.65,0,0,0-.31,0L.65,25.35A.87.87,0,0,0,.56,27l7.75,2.93a.86.86,0,0,0,1-.27.87.87,0,0,0,0-1L6.87,25a.66.66,0,0,0-.23-.21l2.7-7.12a7.1,7.1,0,0,0,4.92-.53,7,7,0,0,0,3.59-4.36l2-7.26,2,7.26a7,7,0,0,0,3.59,4.36,7.12,7.12,0,0,0,4.93.53l2.69,7.12a.66.66,0,0,0-.23.21l-2.47,3.66a.87.87,0,0,0,0,1,.85.85,0,0,0,.68.33.81.81,0,0,0,.31-.06L39.2,27a.87.87,0,0,0-.09-1.66ZM33.79,8.6l-4.65-.43L21.9,7.51l-.73-2.62a0,0,0,0,1,0,0L30.28,1.4s0,0,0,0l3.39,7Zm3.35,17.69L32.52,28,33.93,26l.76-.29ZM31,16l-.06,0-.25.1a5.61,5.61,0,0,1-7.39-3.73L22.31,9,34.2,10A5.67,5.67,0,0,1,34,12.66v0a1.8,1.8,0,0,1-.08.21l0,.07a1.54,1.54,0,0,0-.08.19l0,.07-.12.23,0,.08-.09.15,0,.1-.09.14L33.3,14l-.13.19,0,0a4.94,4.94,0,0,1-.36.44l-.21.21a5.27,5.27,0,0,1-.9.72l-.22.14-.05,0-.19.11-.06,0Zm1.42.68ZM5.83,26,7.24,28,2.62,26.29l2.45-.63ZM8.58,15.88l0,0-.19-.11,0,0-.24-.14a5.64,5.64,0,0,1-.9-.73c-.07-.06-.13-.13-.2-.2a5.28,5.28,0,0,1-.36-.44l0,0L6.46,14l-.06-.08-.08-.14-.06-.1-.08-.14,0-.09L6,13.23l0-.07L5.9,13l0-.07a1.8,1.8,0,0,1-.08-.21v0A5.62,5.62,0,0,1,5.56,10L17.46,9l-1,3.42a5.61,5.61,0,0,1-7.38,3.73L8.86,16,8.8,16Zm10-11-.73,2.62L6,8.6c0-.06,0-.12.07-.17l3.39-7s0,0,0,0h0l9.07,3.43A0,0,0,0,1,18.59,4.89ZM7.4,16.68Z"/></svg>