<svg id="Layer_6" data-name="Layer 6" xmlns="http://www.w3.org/2000/svg" viewBox="0 0 20 20"><defs><style>.cls-1{fill:#fff;}</style></defs><title>Телефон</title><path class="cls-1" d="M17.56,20A17.58,17.58,0,0,1,0,2.44,2.45,2.45,0,0,1,2.44,0H5.75A2.4,2.4,0,0,1,7.48.72a2.41,2.41,0,0,1,.71,1.72,9.19,9.19,0,0,0,.47,2.91,2.45,2.45,0,0,1-.55,2.43l-1,1.41a9.86,9.86,0,0,0,3.75,3.75l1.46-1.1a2.5,2.5,0,0,1,2.4-.48,9.25,9.25,0,0,0,2.89.45A2.45,2.45,0,0,1,20,14.26v3.3A2.45,2.45,0,0,1,17.56,20ZM2.44,2A.44.44,0,0,0,2,2.44,15.58,15.58,0,0,0,17.56,18a.44.44,0,0,0,.44-.44v-3.3a.45.45,0,0,0-.44-.45A11.05,11.05,0,0,1,14,13.25a.51.51,0,0,0-.4.06l-.11.09-2,1.53a1,1,0,0,1-1.08.08A12.14,12.14,0,0,1,5,9.57,1,1,0,0,1,5.07,8.5l1.48-2,.09-.1A.44.44,0,0,0,6.75,6a11.23,11.23,0,0,1-.56-3.52A.44.44,0,0,0,5.75,2Z"/></svg>