<svg id="Calque_1" data-name="Calque 1" xmlns="http://www.w3.org/2000/svg" viewBox="0 0 25.67 26.53"><defs><style>.cls-1{fill:#fff;}</style></defs><title>Вайбер</title><path id="g4780" class="cls-1" d="M23.69,19.3c1.09.87,2.46,1.59,1.81,3.43s-3,3.82-5,3.8a8.45,8.45,0,0,1-1.33-.38A33.74,33.74,0,0,1,.46,7.35c-1.22-3,0-5.48,3.1-6.51a2.37,2.37,0,0,1,1.62,0c1.3.48,4.6,5,4.67,6.37A2.34,2.34,0,0,1,8.5,9.29c-1.33.9-1.33,2.05-.77,3.32A12,12,0,0,0,14,18.75a2,2,0,0,0,2.72-.64c1.25-1.89,2.78-1.8,4.45-.63.84.59,1.7,1.17,2.49,1.82ZM13.88,1.4c6.4,1,9.35,4,10.16,10.47.08.59-.14,1.49.71,1.51s.67-.87.68-1.47A12.16,12.16,0,0,0,14.07,0c-.46.06-1.42-.32-1.48.71,0,.71.77.59,1.29.67Zm1.25,1.77c-.61-.08-1.42-.37-1.57.49s.76.8,1.34.93c4,.89,5.33,2.32,6,6.24.09.57-.1,1.46.87,1.31.72-.1.46-.87.52-1.31,0-3.76-3.19-7.19-7.14-7.66Zm.37,3.08c-.41,0-.82,0-1,.49-.22.65.26.81.74.89a2.87,2.87,0,0,1,2.63,2.83c.05.44.33.79.75.74.59-.07.64-.59.62-1.09A4.25,4.25,0,0,0,15.5,6.25Z"/></svg>