<svg id="Calque_1" data-name="Calque 1" xmlns="http://www.w3.org/2000/svg" viewBox="0 0 34.39 20.14"><defs><style>.cls-1{fill:#fff;}</style></defs><title>вконтакте</title><path class="cls-1" d="M34.14,1.55c-.43-.36-2.08-.35-3.72-.34a21.61,21.61,0,0,0-3.71.17c-.36.14-1.16,2.06-2.2,4.05C23.34,7.68,21.89,9.84,21,9.82c-1.19,0-.92-3.71-.85-6.42.05-1.79-.24-2.35-.51-2.53A10.3,10.3,0,0,0,17.25,0s-5.17-.4-5.91,1.85c1,.13,2.68-.18,2,6.76,0,.34-.79,3.2-3.21-.67-.6-1-2.92-6.74-3.72-6.76C3.76,1.14,1.14,1,.2,1.55S1.35,6,4.76,11.34C7.54,15.7,10.48,19.1,15.56,20c1,.09,3.45.21,4.22-.17.54-.26-.11-4,1.69-4.39.81-.16,3.9,3.92,5.07,4.39a12.18,12.18,0,0,0,3.88.34c1.74-.06,3.7.15,3.89-1,.42-2.6-5.24-6-5.41-7.6-.12-1.15,2.07-3.28,3.21-4.9C33.5,4.65,35,2.28,34.14,1.55Z"/></svg>