<svg id="Calque_1" data-name="Calque 1" xmlns="http://www.w3.org/2000/svg" viewBox="0 0 29.48 29.71"><defs><style>.cls-1{fill:#fff;fill-rule:evenodd;}</style></defs><title>Вотсап</title><path class="cls-1" d="M21.8,17.76c-.37-.2-2.15-1.16-2.48-1.3s-.58-.2-.84.16A18.27,18.27,0,0,1,17.25,18c-.22.24-.44.26-.8.07a10.21,10.21,0,0,1-2.9-1.95,11.3,11.3,0,0,1-2-2.63.54.54,0,0,1,.19-.75c.17-.16.38-.42.58-.63a2.57,2.57,0,0,0,.39-.6.68.68,0,0,0,0-.65c-.08-.19-.75-2-1-2.79s-.6-.64-.81-.64-.46,0-.71-.06a1.36,1.36,0,0,0-1,.42,4.18,4.18,0,0,0-1.41,3,7.26,7.26,0,0,0,1.36,3.88c.18.25,2.41,4.19,6.11,5.81s3.72,1.13,4.4,1.09A3.75,3.75,0,0,0,22.21,20a3.15,3.15,0,0,0,.28-1.75c-.09-.16-.33-.26-.69-.46ZM15,26.52a12,12,0,0,1-6.63-2L3.75,26l1.5-4.47a12.05,12.05,0,1,1,9.76,5ZM15,0A14.49,14.49,0,0,0,2.61,22L0,29.71l8-2.56A14.48,14.48,0,1,0,15,0Z"/></svg>