<svg id="Слой_3" data-name="Слой 3" xmlns="http://www.w3.org/2000/svg" viewBox="0 0 22.82 30"><defs><style>.cls-1{fill:#f68624;}</style></defs><title>Для кого</title><path class="cls-1" d="M16.41,0V1.46h3.92l-4,4.05A7.12,7.12,0,0,0,6.76,6,7,7,0,0,0,5.07,8.72,7.11,7.11,0,0,0,6.39,22.61v1.95H3.6V26H6.39v4H7.85V26h2.79V24.56H7.85V22.61a7.1,7.1,0,0,0,6-4.76A7.11,7.11,0,0,0,17.32,6.54l4-4V6.42h1.46V0ZM7.12,21.19A5.65,5.65,0,0,1,4.71,10.43a7.1,7.1,0,0,0,7.08,7.72l.35,0A5.66,5.66,0,0,1,7.12,21.19Zm5.55-4.59A5.63,5.63,0,0,1,6.24,10a6.4,6.4,0,0,1,.88-.07,5.65,5.65,0,0,1,5.65,5.65A5.39,5.39,0,0,1,12.67,16.6ZM15.79,15a5.59,5.59,0,0,1-1.58,1.09c0-.19,0-.39,0-.59A7.14,7.14,0,0,0,7.12,8.41l-.32,0a5.57,5.57,0,0,1,1-1.4,5.66,5.66,0,0,1,8,8Z"/></svg>