<svg id="Слой_3" data-name="Слой 3" xmlns="http://www.w3.org/2000/svg" viewBox="0 0 33.4 30"><defs><style>.cls-1{fill:#f68624;}</style></defs><title>Оформление шарами</title><path class="cls-1" d="M33.39,7.05a.72.72,0,0,0-.32-.49l-6.5-4.19A.72.72,0,0,0,26,2.29a.7.7,0,0,0-.44.43L16.7,27.18,7.89,2.72a.7.7,0,0,0-.44-.43.72.72,0,0,0-.62.08L.33,6.56A.71.71,0,0,0,.16,7.61l4.28,5.32-2.62,2.7a.67.67,0,0,0-.2.52.66.66,0,0,0,.23.5L16.22,29.81l0,0,0,0,.1,0,.07,0a.68.68,0,0,0,.46,0l.07,0,.1,0,0,0,0,0L31.55,16.65a.7.7,0,0,0,.24-.5.72.72,0,0,0-.21-.52L29,12.93l4.28-5.32A.71.71,0,0,0,33.39,7.05Zm-30,9.05,2.56-2.62a.72.72,0,0,0,0-1L1.77,7.33,6.85,4.05l8.2,22.75Zm24.1-3.57a.72.72,0,0,0,0,1l2.56,2.62L18.35,26.8l8.2-22.75,5.08,3.28Z"/><path class="cls-1" d="M11.94,7.34a.68.68,0,0,0,.34-.08l3.26-1.73h2.32l3.26,1.73a.68.68,0,0,0,.34.08.7.7,0,0,0,.71-.71V.71A.72.72,0,0,0,21.83.1a.75.75,0,0,0-.71,0L17.86,1.82v0H15.54v0L12.28.08a.75.75,0,0,0-.71,0,.72.72,0,0,0-.34.61V6.63a.7.7,0,0,0,.71.71Zm4.11-3.23V3.23h1.3v.88Zm2.73-1.17,2-1V5.44l-2-1Zm-6.12-1,2,1V4.4l-2,1Z"/></svg>