<svg id="Слой_3" data-name="Слой 3" xmlns="http://www.w3.org/2000/svg" viewBox="0 0 34.88 30"><defs><style>.cls-1{fill:#f68624;}</style></defs><title>Персонажи и герои</title><path class="cls-1" d="M27.72,30H7.12a.72.72,0,0,1-.71-.6L3.93,14.13a.71.71,0,0,1,1.14-.68L10.8,17.9l6-11a.73.73,0,0,1,.63-.38h0a.73.73,0,0,1,.63.38l6,11,5.73-4.45a.71.71,0,0,1,1.14.68L28.43,29.4A.72.72,0,0,1,27.72,30Zm-20-1.43H27.12l2.09-12.88-5,3.85a.72.72,0,0,1-.58.14.69.69,0,0,1-.48-.36L17.42,8.69,11.66,19.32a.71.71,0,0,1-1.07.22l-5-3.85Z"/><path class="cls-1" d="M17.42,5.15A2.58,2.58,0,1,1,20,2.58,2.58,2.58,0,0,1,17.42,5.15Zm0-3.72a1.15,1.15,0,1,0,1.15,1.15A1.15,1.15,0,0,0,17.42,1.43Z"/><path class="cls-1" d="M32.31,13a2.58,2.58,0,1,1,2.57-2.58A2.59,2.59,0,0,1,32.31,13Zm0-3.73a1.15,1.15,0,1,0,1.14,1.15A1.15,1.15,0,0,0,32.31,9.23Z"/><path class="cls-1" d="M2.58,13a2.58,2.58,0,1,1,2.57-2.58A2.59,2.59,0,0,1,2.58,13Zm0-3.73a1.15,1.15,0,1,0,1.14,1.15A1.15,1.15,0,0,0,2.58,9.23Z"/></svg>