<svg id="Слой_4" data-name="Слой 4" xmlns="http://www.w3.org/2000/svg" viewBox="0 0 33.07 30"><defs><style>.cls-1{fill:#f68624;}</style></defs><title>Фигуры из шаров</title><path class="cls-1" d="M33.07,10.92l-1-1-.86.88a2.69,2.69,0,0,0-1.33-.4,2.73,2.73,0,0,0-2,.74l-3.51,3.28h-10l0,0-2.19-3.9a3.15,3.15,0,0,0,.72-2V8.18a3.15,3.15,0,0,0-.42-1.55V2.93a2.93,2.93,0,0,0-5.86,0V5H4.47A3.15,3.15,0,0,0,1.38,7.63H0V9.06H1.38a3.15,3.15,0,0,0,3.09,2.59H7.22l2.07,3.68a4.24,4.24,0,0,0-1.67,3.36v.47a4.27,4.27,0,0,0,1.86,3.52L8.14,26.3a2.76,2.76,0,0,0,1.63,3.53,2.84,2.84,0,0,0,1,.17,2.75,2.75,0,0,0,2.58-1.8l1.76-4.77h8.53l2.29,5a2.74,2.74,0,0,0,1.54,1.43,2.85,2.85,0,0,0,1,.17,2.66,2.66,0,0,0,1.14-.25,2.76,2.76,0,0,0,1.35-3.65l-2-4.4a4.25,4.25,0,0,0,.86-2.54v-.47a4.37,4.37,0,0,0-.32-1.62l2.27-1.92a2.73,2.73,0,0,0,.87-1.92,2.84,2.84,0,0,0-.34-1.4Zm-25-8a1.5,1.5,0,1,1,3,0V5.32A3.08,3.08,0,0,0,9.83,5H8.12ZM4.47,10.22A1.72,1.72,0,0,1,2.76,8.5V8.18A1.72,1.72,0,0,1,4.47,6.47H9.83a1.72,1.72,0,0,1,1.72,1.71V8.5a1.72,1.72,0,0,1-1.72,1.72Zm4.39,1.43h1a3,3,0,0,0,1.27-.28l1.72,3.05h-.93a4.24,4.24,0,0,0-1.34.24ZM12,27.71a1.32,1.32,0,1,1-2.48-.92l1.31-3.52a4.36,4.36,0,0,0,1.1.16h1.65ZM11.89,22a2.84,2.84,0,0,1-2.84-2.84v-.47a2.84,2.84,0,0,1,2.84-2.84H25.43a2.84,2.84,0,0,1,2.84,2.84v.47A2.84,2.84,0,0,1,25.43,22Zm17.68,4.7a1.32,1.32,0,0,1-1.65,1.79,1.29,1.29,0,0,1-.74-.69l-2-4.37h.27a4.27,4.27,0,0,0,2.32-.69ZM30.7,14.08l-2.1,1.78a4.26,4.26,0,0,0-2.24-1.33l2.51-2.35a1.34,1.34,0,0,1,.95-.36,1.32,1.32,0,0,1,.91.42,1.29,1.29,0,0,1,.36.95A1.27,1.27,0,0,1,30.7,14.08Z"/></svg>