<svg id="Layer_6" data-name="Layer 6" xmlns="http://www.w3.org/2000/svg" viewBox="0 0 19 16.5"><defs><style>.cls-1{fill:none;stroke:#fff;stroke-linecap:round;stroke-linejoin:round;stroke-width:1.5px;}.cls-2{fill:#fff;}</style></defs><title>Фильтр</title><line class="cls-1" x1="9.49" y1="15.75" x2="9.49" y2="14.27"/><path class="cls-2" d="M3.74,2V.75a.75.75,0,0,0-1.5,0v1.3A2.93,2.93,0,0,0,0,4.86,2.92,2.92,0,0,0,2.25,7.67s0,0,0,.06v8a.75.75,0,0,0,1.5,0v-8a.43.43,0,0,1,0-.05A2.94,2.94,0,0,0,6,4.86,2.94,2.94,0,0,0,3.74,2ZM3,6.28A1.46,1.46,0,0,1,1.5,4.86,1.46,1.46,0,0,1,3,3.45,1.46,1.46,0,0,1,4.5,4.86,1.46,1.46,0,0,1,3,6.28Z"/><path class="cls-2" d="M10.24,9.07V.75a.75.75,0,0,0-1.5,0V9.08A2.91,2.91,0,0,0,6.5,11.89a3,3,0,0,0,6,0A2.93,2.93,0,0,0,10.24,9.07ZM9.5,13.3A1.42,1.42,0,1,1,11,11.89,1.46,1.46,0,0,1,9.5,13.3Z"/><path class="cls-2" d="M19,4.86a2.92,2.92,0,0,0-2.26-2.81V.75a.75.75,0,1,0-1.5,0v1.3A2.93,2.93,0,0,0,13,4.86a2.93,2.93,0,0,0,2.24,2.81v8.08a.75.75,0,1,0,1.5,0V7.68A2.94,2.94,0,0,0,19,4.86ZM16,6.28a1.46,1.46,0,0,1-1.5-1.42,1.5,1.5,0,0,1,3,0A1.46,1.46,0,0,1,16,6.28Z"/></svg>